<?xml version="1.0" encoding="UTF-8"?>
<svg id="Layer_1" data-name="Layer 1" xmlns="http://www.w3.org/2000/svg" viewBox="40 32 176 176">
  <defs>
    <style>
      .cls-1 {
        fill: #1428ff;
      }
    </style>
  </defs>
  <polygon class="cls-1" points="128 155 185.392 127.915 207.039 164.448 128.355 201.985 48.916 164.386 59.48 146.027 128 179 128 155"/>
  <polygon class="cls-1" points="128 131 128 154 71.916 127.392 82.486 109.012 128 131"/>
  <polygon class="cls-1" points="128 107 162.378 90.912 173.001 108.979 128 130 128 107"/>
  <polygon class="cls-1" points="128 83 128 106 94.916 90.393 105.026 72.002 128 83"/>
  <polygon class="cls-1" points="128 59 139.897 54.068 149.985 71.43 128 82 128 59"/>
  <polygon class="cls-1" points="128 58 116.977 53.478 128 36 128 58"/>
</svg>